<?xml version="1.0" standalone="no"?>
<!DOCTYPE svg PUBLIC "-//W3C//DTD SVG 20010904//EN"
 "http://www.w3.org/TR/2001/REC-SVG-20010904/DTD/svg10.dtd">
<svg version="1.0" xmlns="http://www.w3.org/2000/svg"
 width="3500.000000pt" height="3000.000000pt" viewBox="0 0 3500.000000 3000.000000"
 preserveAspectRatio="xMidYMid meet">
<metadata>
Created by potrace 1.16, written by Peter Selinger 2001-2019
</metadata>
<g transform="translate(0.000000,3000.000000) scale(0.875000,-0.750000)"
fill="#000000" stroke="none">
<path d="M2650 3628 c-5 -13 -33 -102 -64 -198 -131 -422 -246 -785 -325
-1035 -28 -88 -51 -166 -51 -173 0 -6 -4 -12 -10 -12 -5 0 -10 1 -10 3 0 1
-15 47 -34 102 -18 55 -80 240 -136 410 -56 171 -106 318 -111 327 -5 9 -55
50 -111 91 -57 40 -170 122 -253 182 -82 60 -202 146 -266 192 l-117 83 -191
0 -191 0 0 -270 0 -269 276 0 c152 0 279 -3 282 -6 3 -3 56 -159 119 -347 183
-555 423 -1282 425 -1293 1 -5 10 -30 19 -55 l17 -45 285 -3 285 -3 7 23 c4
13 33 106 65 208 32 102 82 259 110 350 29 91 69 219 90 285 21 66 87 273 145
460 59 187 122 387 140 445 19 58 57 179 85 270 28 91 60 190 70 221 11 31 20
61 20 68 0 8 -76 11 -280 11 l-280 0 -10 -22z"/>
<path d="M799 1053 c11 -26 48 -119 83 -205 l63 -158 61 0 61 0 82 195 c44
108 81 200 81 205 0 6 -22 10 -49 10 l-49 0 -20 -52 c-55 -143 -72 -186 -84
-225 -7 -24 -15 -43 -18 -43 -3 0 -18 37 -34 83 -15 45 -40 116 -54 157 l-28
75 -57 3 -57 3 19 -48z"/>
<path d="M1290 895 l0 -205 175 0 c160 0 175 2 175 18 0 9 3 27 6 40 6 22 6
22 -125 22 l-131 0 0 50 0 50 115 0 115 0 0 35 0 35 -115 0 -115 0 0 40 0 40
120 0 120 0 0 40 0 40 -170 0 -170 0 0 -205z"/>
<path d="M1720 895 l1 -205 50 0 49 0 0 81 0 81 70 -4 c38 -2 75 -9 82 -16 7
-7 14 -39 15 -70 1 -31 2 -60 3 -64 0 -5 23 -8 50 -8 l50 0 0 65 c0 70 -14
112 -40 120 -15 5 -12 11 16 39 39 39 44 78 18 127 -25 49 -65 59 -224 59
l-141 0 1 -205z m260 115 c24 -24 25 -39 6 -65 -11 -15 -27 -19 -87 -19 l-74
-1 -3 53 -3 52 70 0 c58 0 75 -4 91 -20z"/>
<path d="M2190 895 l0 -205 50 0 50 0 0 205 0 205 -50 0 -50 0 0 -205z"/>
<path d="M2352 1063 l3 -38 73 -3 72 -3 0 -164 0 -165 50 0 50 0 0 165 0 165
70 0 70 0 0 40 0 40 -196 0 -195 0 3 -37z"/>
<path d="M2810 895 l0 -205 175 0 175 0 0 24 c0 13 3 31 6 40 5 14 -10 16
-125 16 l-132 0 3 48 3 47 113 3 112 3 0 34 0 34 -112 3 -113 3 -3 37 -3 37
123 3 123 3 3 38 3 37 -175 0 -176 0 0 -205z"/>
<path d="M1560 436 l0 -84 52 2 c47 1 54 4 66 28 24 51 -11 107 -59 95 -15 -4
-19 0 -19 19 0 17 -6 24 -20 24 -18 0 -20 -7 -20 -84z"/>
<path d="M2026 493 c23 -106 37 -143 54 -143 18 0 40 45 40 81 0 35 16 19 31
-28 11 -36 20 -48 34 -48 16 0 23 13 37 65 21 83 21 100 3 100 -14 0 -17 -7
-33 -85 l-9 -40 -18 63 c-13 47 -22 62 -36 62 -13 0 -20 -10 -24 -37 -15 -87
-21 -91 -35 -25 -10 49 -17 62 -32 62 -15 0 -17 -5 -12 -27z"/>
</g>
</svg>
