<?xml version="1.0" standalone="no"?>
<!DOCTYPE svg PUBLIC "-//W3C//DTD SVG 20010904//EN"
 "http://www.w3.org/TR/2001/REC-SVG-20010904/DTD/svg10.dtd">
<svg version="1.0" xmlns="http://www.w3.org/2000/svg"
 width="40000.000000pt" height="35000.000000pt" viewBox="0 0 40000.000000 35000.000000"
 preserveAspectRatio="xMidYMid meet">
<metadata>
Created by potrace 1.16, written by Peter Selinger 2001-2019
</metadata>
<g transform="translate(0.000000,35000.000000) scale(2.001001,-3.144654)"
fill="#000000" stroke="none">
<path d="M7826 8813 c-102 -263 -186 -481 -186 -485 0 -5 31 -8 69 -8 l69 0
32 83 c17 45 41 110 53 145 l22 62 199 -2 199 -3 51 -142 51 -143 77 0 78 0
-20 53 c-11 28 -96 246 -188 482 l-168 430 -76 3 -75 3 -187 -478z m334 129
c40 -111 70 -205 68 -208 -3 -2 -70 -3 -150 -2 l-144 3 75 207 c41 114 76 206
77 205 1 -1 34 -93 74 -205z"/>
<path d="M8610 8805 l0 -485 60 0 60 0 0 485 0 485 -60 0 -60 0 0 -485z"/>
<path d="M8900 8805 l0 -485 65 0 65 0 0 485 0 485 -65 0 -65 0 0 -485z"/>
<path d="M9200 9215 l0 -75 65 0 65 0 0 75 0 75 -65 0 -65 0 0 -75z"/>
<path d="M9658 9027 c-97 -28 -156 -92 -173 -189 l-7 -38 66 0 c63 0 66 1 66
24 0 35 45 84 88 96 119 33 222 -12 222 -96 0 -46 -35 -70 -123 -84 -275 -43
-339 -88 -339 -235 0 -69 17 -110 61 -148 47 -39 93 -50 190 -45 89 5 150 26
199 71 l22 20 0 -22 c0 -12 11 -33 25 -46 19 -20 34 -25 72 -25 85 0 93 6 93
61 0 49 0 49 -34 49 -30 0 -34 4 -40 31 -3 17 -6 129 -6 249 0 208 -1 218 -23
251 -37 56 -105 83 -217 86 -57 2 -114 -3 -142 -10z m262 -417 c0 -69 -16
-106 -59 -143 -43 -36 -94 -50 -162 -45 -76 5 -109 33 -109 90 0 80 33 102
193 129 61 10 112 21 115 24 16 15 22 -1 22 -55z"/>
<path d="M10469 9031 c-42 -14 -72 -32 -106 -64 l-33 -31 0 42 0 42 -60 0 -60
0 0 -350 0 -350 59 0 59 0 4 228 c3 214 5 230 27 275 59 122 240 144 293 37
16 -31 18 -67 18 -287 l0 -253 60 0 60 0 0 274 c0 180 -4 285 -12 307 -30 91
-92 131 -208 135 -41 2 -87 0 -101 -5z"/>
<path d="M11131 9021 c-65 -23 -96 -45 -138 -100 -79 -102 -97 -310 -40 -436
55 -119 130 -166 273 -173 107 -5 169 11 226 58 36 30 90 126 102 183 l6 27
-63 0 -64 0 -17 -45 c-21 -54 -73 -102 -121 -111 -140 -26 -232 59 -243 221
-11 167 73 285 203 285 78 0 165 -65 165 -124 0 -13 12 -16 66 -16 l67 0 -6
40 c-8 59 -52 127 -104 160 -81 52 -213 65 -312 31z"/>
<path d="M11885 9031 c-87 -21 -177 -100 -217 -188 -25 -58 -35 -196 -19 -271
25 -121 92 -206 189 -242 76 -29 226 -25 287 7 53 28 99 78 124 133 33 73 30
80 -37 80 l-57 0 -20 -42 c-28 -58 -81 -88 -157 -88 -31 0 -69 5 -85 11 -61
23 -122 109 -123 172 l0 27 260 0 261 0 -6 63 c-14 130 -48 209 -118 274 -68
63 -181 88 -282 64z m143 -116 c20 -9 47 -26 60 -38 29 -27 62 -89 62 -117 0
-19 -5 -20 -190 -20 -211 0 -204 -3 -175 68 21 49 52 81 100 103 49 23 94 24
143 4z"/>
<path d="M9200 8670 l0 -350 65 0 65 0 0 350 0 350 -65 0 -65 0 0 -350z"/>
<path d="M1710 7555 l0 -35 8290 0 8290 0 0 35 0 35 -8290 0 -8290 0 0 -35z"/>
<path d="M3365 6738 c-30 -88 -63 -273 -77 -425 -25 -288 39 -552 176 -725 25
-32 82 -83 126 -114 91 -63 134 -112 179 -201 28 -56 71 -190 71 -221 0 -18
-77 36 -121 85 -19 21 -52 69 -74 106 -170 293 -596 420 -1137 340 l-108 -16
7 -26 c24 -102 87 -221 160 -302 56 -62 165 -134 254 -169 178 -69 472 -95
718 -65 l148 18 47 -27 c25 -15 46 -29 46 -31 0 -2 -13 -25 -30 -52 -86 -140
-78 -359 21 -555 16 -32 33 -58 37 -57 4 0 25 24 48 52 57 73 121 119 259 187
143 70 238 104 615 216 332 100 442 139 565 203 275 142 351 389 218 705 -49
117 -41 116 -141 17 -137 -136 -257 -190 -695 -312 -391 -110 -576 -173 -695
-240 -37 -21 -54 -26 -56 -17 -32 100 -56 234 -56 309 0 39 10 90 31 151 94
282 16 575 -238 892 -78 98 -265 286 -284 286 -5 0 -12 -6 -14 -12z"/>
<path d="M4490 6419 c-123 -24 -245 -122 -302 -245 -59 -126 -48 -295 27 -414
70 -111 201 -188 332 -197 234 -16 428 138 464 368 46 296 -221 547 -521 488z"/>
<path d="M10518 5713 c-10 -2 -18 -9 -18 -14 0 -5 -58 -9 -134 -9 -163 0 -226
-7 -226 -27 0 -9 7 -12 18 -9 75 22 318 28 1044 28 433 0 792 -4 798 -7 25
-15 28 -58 19 -212 -32 -536 -201 -863 -534 -1031 -70 -35 -228 -92 -256 -92
-40 0 -17 -17 40 -28 100 -21 270 -81 376 -132 183 -90 306 -207 355 -337 32
-84 25 -188 -18 -275 -117 -239 -510 -422 -1052 -490 -158 -20 -612 -17 -770
5 -553 77 -935 271 -1029 522 -31 83 -49 506 -33 763 7 103 15 197 18 210 5
15 2 22 -8 22 -23 0 -28 -91 -28 -570 0 -471 5 -570 26 -570 9 0 14 -12 14
-35 0 -24 5 -35 15 -35 8 0 15 -7 15 -15 0 -9 7 -18 15 -21 8 -4 15 -12 15
-20 0 -8 9 -22 20 -31 11 -10 20 -23 20 -30 0 -7 7 -13 15 -13 8 0 15 -7 15
-15 0 -8 7 -15 15 -15 8 0 15 -7 15 -16 0 -9 9 -18 20 -21 11 -3 20 -12 20
-19 0 -9 11 -14 30 -14 20 0 30 -5 30 -15 0 -8 9 -15 20 -15 11 0 20 -6 20
-14 0 -8 14 -17 30 -21 17 -4 30 -11 30 -15 0 -5 16 -12 35 -16 20 -3 35 -12
35 -20 0 -9 11 -14 30 -14 19 0 30 -5 30 -14 0 -9 16 -15 46 -19 26 -2 49 -10
53 -15 4 -6 27 -14 51 -18 25 -4 48 -12 52 -17 3 -6 34 -13 67 -15 43 -3 61
-8 61 -18 0 -11 22 -14 100 -14 78 0 100 -3 100 -14 0 -22 71 -26 520 -26 449
0 520 4 520 26 0 11 19 14 80 14 57 0 81 4 87 14 5 9 33 15 81 18 40 2 76 8
80 14 4 6 27 14 52 18 24 4 47 12 51 17 3 6 25 13 48 16 25 4 41 11 41 19 0 9
12 14 35 14 24 0 35 5 35 15 0 8 9 15 19 15 11 0 26 6 33 14 8 7 29 17 46 21
18 3 32 13 32 21 0 8 9 14 20 14 11 0 20 7 20 15 0 10 10 15 30 15 20 0 30 5
30 15 0 8 7 15 15 15 8 0 15 7 15 16 0 9 9 18 20 21 11 3 20 12 20 19 0 8 7
14 15 14 8 0 15 9 15 20 0 11 7 20 15 20 8 0 15 7 15 15 0 8 9 23 20 32 11 10
20 23 20 30 0 7 4 13 10 13 5 0 12 16 16 35 3 20 12 35 20 35 11 0 14 32 14
175 0 143 -3 175 -14 175 -8 0 -17 15 -20 35 -4 19 -11 35 -16 35 -6 0 -10 7
-10 15 0 9 -6 18 -14 21 -8 3 -18 19 -21 35 -4 16 -13 29 -21 29 -8 0 -14 7
-14 15 0 8 -6 15 -14 15 -7 0 -16 9 -19 20 -3 11 -12 20 -21 20 -9 0 -16 7
-16 15 0 10 -10 15 -30 15 -20 0 -30 5 -30 15 0 8 -7 15 -15 15 -8 0 -15 7
-15 15 0 8 -14 17 -35 21 -20 3 -35 12 -35 20 0 8 -9 14 -20 14 -11 0 -20 7
-20 15 0 10 -10 15 -30 15 -19 0 -30 5 -30 14 0 9 -12 16 -32 18 -35 3 -52 28
-19 28 12 0 21 6 21 14 0 8 14 17 30 21 17 4 30 13 30 21 0 8 9 14 20 14 11 0
20 7 20 15 0 8 7 15 15 15 8 0 15 9 15 20 0 11 7 20 15 20 8 0 15 7 15 15 0 8
9 15 20 15 11 0 20 7 20 15 0 8 7 15 15 15 8 0 15 9 15 20 0 11 6 20 14 20 8
0 17 14 21 30 4 17 13 30 21 30 8 0 14 7 14 15 0 8 4 15 10 15 5 0 12 16 16
35 3 20 12 35 20 35 9 0 14 12 14 35 0 23 5 35 14 35 8 0 15 16 19 41 3 23 11
45 17 49 6 4 14 33 17 66 3 32 11 62 17 66 6 4 12 48 14 103 3 73 7 95 18 95
12 0 14 39 14 230 0 192 -2 230 -14 230 -8 0 -17 14 -21 30 -4 17 -13 30 -20
30 -8 0 -23 9 -34 21 -18 19 -28 20 -157 17 -99 -2 -139 -7 -142 -15 -3 -10
-78 -13 -332 -13 -254 0 -329 3 -332 13 -4 9 -78 12 -324 14 -175 0 -327 -1
-336 -4z"/>
<path d="M13224 5545 c-179 -31 -363 -108 -494 -205 -83 -62 -212 -196 -265
-275 -90 -136 -159 -308 -186 -465 -16 -97 -17 -347 0 -430 94 -479 454 -843
928 -939 125 -26 323 -28 443 -5 160 30 332 103 465 199 76 54 167 135 163
146 -2 4 -50 55 -107 113 l-104 106 -43 -40 c-104 -96 -267 -180 -409 -211
-96 -21 -265 -16 -363 10 -361 95 -617 390 -662 761 -14 110 -1 218 42 347 87
265 288 465 558 555 91 31 102 33 255 33 140 0 169 -3 235 -23 101 -32 230
-101 314 -169 l69 -55 106 106 105 105 -29 32 c-89 93 -282 209 -430 258 -166
54 -427 75 -591 46z"/>
<path d="M14470 4375 l0 -1175 160 0 160 0 0 1175 0 1175 -160 0 -160 0 0
-1175z"/>
<path d="M15672 5535 c-145 -33 -264 -98 -367 -200 -114 -112 -183 -247 -228
-440 -20 -86 -21 -123 -24 -887 l-4 -798 160 0 161 0 0 435 0 435 502 0 501 0
-6 -435 -7 -435 166 0 165 0 -4 803 c-3 767 -4 806 -24 892 -60 264 -203 460
-408 561 -49 24 -117 51 -150 60 -83 23 -347 28 -433 9z m283 -285 c144 -21
263 -104 329 -229 58 -111 76 -206 83 -433 l6 -198 -503 0 -503 0 6 188 c6
214 23 313 71 417 46 98 111 166 199 210 99 49 192 62 312 45z"/>
<path d="M16770 5400 l0 -150 300 0 300 0 0 -1020 0 -1020 160 0 160 0 0 1020
0 1020 300 0 300 0 0 150 0 150 -760 0 -760 0 0 -150z"/>
<path d="M10405 5534 c-418 -31 -666 -117 -845 -294 -89 -88 -139 -161 -191
-279 -62 -139 -85 -239 -125 -536 l-5 -40 39 60 c105 162 292 294 532 375 139
46 297 82 649 145 173 31 382 74 465 95 343 86 591 211 783 394 l85 81 -669 1
c-367 1 -690 0 -718 -2z"/>
<path d="M11790 5328 c-98 -91 -238 -184 -380 -252 -228 -109 -429 -164 -910
-251 -476 -85 -633 -126 -794 -207 -173 -85 -272 -181 -349 -335 -34 -66 -82
-212 -73 -220 2 -2 33 17 69 42 135 94 370 183 603 229 169 33 262 44 474 56
670 39 929 100 1130 265 153 126 251 327 295 607 9 59 15 114 13 122 -2 9 -30
-11 -78 -56z"/>
<path d="M5843 5043 c-23 -71 -58 -127 -106 -174 l-55 -55 117 -111 c64 -61
142 -142 173 -179 236 -290 378 -651 395 -1006 l6 -118 155 0 155 0 -7 114
c-30 511 -231 971 -580 1334 -71 74 -228 212 -240 212 -4 0 -9 -8 -13 -17z"/>
<path d="M2875 4650 c-251 -337 -388 -715 -411 -1132 l-7 -119 154 3 154 3 6
115 c23 405 215 839 493 1110 31 30 56 57 56 61 0 3 -42 9 -92 13 -82 6 -165
19 -250 41 -25 6 -32 0 -103 -95z"/>
<path d="M4795 4444 c-82 -36 -296 -115 -475 -175 -579 -197 -747 -275 -869
-404 -113 -119 -145 -286 -95 -490 16 -64 91 -225 104 -225 5 0 18 15 29 34
28 44 101 112 180 165 108 73 273 145 556 241 386 131 622 252 707 365 53 70
79 158 79 271 0 51 -3 105 -6 120 -13 59 -48 164 -54 163 -3 0 -73 -30 -156
-65z"/>
<path d="M10410 4216 c-138 -51 -248 -148 -305 -268 -19 -40 -37 -92 -41 -115
l-7 -43 217 0 216 0 0 220 0 220 -22 -1 c-13 0 -39 -6 -58 -13z"/>
<path d="M10640 4011 l0 -221 215 0 c118 0 215 4 215 8 0 24 -36 125 -63 176
-62 117 -210 230 -329 251 l-38 7 0 -221z"/>
<path d="M9950 4175 c-220 -51 -478 -162 -578 -250 -45 -39 -102 -110 -102
-127 0 -4 142 -8 315 -8 l314 0 6 38 c21 121 68 228 140 316 53 65 54 65 -95
31z"/>
<path d="M11093 4127 c72 -100 127 -237 127 -314 l0 -23 320 0 c176 0 320 2
320 5 0 21 -39 71 -96 123 -115 106 -327 199 -582 257 -61 14 -118 25 -126 25
-10 0 2 -24 37 -73z"/>
<path d="M9280 3631 c0 -18 95 -113 149 -150 128 -87 308 -158 522 -205 160
-36 159 -36 105 25 -58 64 -123 195 -139 277 l-12 62 -312 0 c-177 0 -313 -4
-313 -9z"/>
<path d="M10066 3613 c3 -16 23 -65 45 -109 30 -62 54 -96 103 -142 70 -65
165 -117 234 -128 l42 -7 0 207 0 206 -215 0 -215 0 6 -27z"/>
<path d="M10640 3434 l0 -207 38 6 c67 11 180 75 242 137 59 59 124 172 136
238 l7 32 -212 0 -211 0 0 -206z"/>
<path d="M11206 3573 c-22 -92 -73 -197 -129 -266 -31 -37 -42 -57 -32 -57 8
0 68 11 132 25 269 58 478 152 600 270 40 39 73 76 73 83 0 9 -70 12 -314 12
l-313 0 -17 -67z"/>
<path d="M1690 2799 l0 -421 273 5 c164 3 287 9 309 16 66 21 130 72 158 126
20 39 25 64 25 120 -1 86 -27 143 -84 180 l-38 26 33 33 c78 78 65 220 -28
288 -59 45 -86 48 -374 48 l-274 0 0 -421z m440 208 c19 -10 25 -20 25 -47 0
-46 -29 -60 -127 -60 l-78 0 0 60 0 60 78 0 c42 0 88 -6 102 -13z m39 -291
c28 -25 28 -77 0 -102 -16 -15 -40 -19 -120 -22 l-99 -4 0 77 0 77 99 -4 c80
-2 103 -7 120 -22z"/>
<path d="M2530 3135 l0 -85 120 0 120 0 0 85 0 85 -120 0 -120 0 0 -85z"/>
<path d="M6000 3135 l0 -85 120 0 120 0 0 85 0 85 -120 0 -120 0 0 -85z"/>
<path d="M6370 3090 l0 -90 -50 0 -50 0 0 -75 0 -75 50 0 50 0 0 -172 c0 -150
3 -179 20 -216 29 -65 74 -82 223 -82 l117 0 0 95 0 95 -44 0 c-71 0 -76 11
-76 156 l0 124 60 0 60 0 0 75 0 75 -60 0 -60 0 0 90 0 90 -120 0 -120 0 0
-90z"/>
<path d="M3024 2992 c-121 -42 -186 -137 -192 -279 -5 -110 15 -176 73 -241
67 -75 125 -96 255 -96 130 0 188 21 255 96 61 67 78 126 73 242 -3 80 -8 99
-34 146 -37 66 -97 114 -166 135 -70 20 -200 19 -264 -3z m170 -166 c44 -18
59 -64 54 -156 -4 -81 -31 -120 -80 -120 -66 0 -98 46 -98 140 0 91 24 131 88
149 1 1 18 -5 36 -13z"/>
<path d="M4360 3001 c-120 -37 -202 -134 -220 -258 -32 -228 123 -386 365
-371 97 7 163 32 218 86 38 36 67 81 67 102 0 6 -40 10 -111 10 -96 0 -114 -3
-136 -20 -29 -22 -79 -26 -118 -8 -25 11 -55 54 -55 78 0 7 73 10 220 10 l220
0 -5 38 c-2 20 -7 58 -10 84 -15 115 -94 212 -199 243 -52 16 -193 19 -236 6z
m155 -155 c34 -14 55 -41 55 -70 0 -14 -16 -16 -100 -16 -78 0 -100 3 -100 14
0 24 40 66 73 75 18 5 33 10 35 10 1 1 18 -5 37 -13z"/>
<path d="M5161 2989 c-19 -11 -42 -30 -52 -42 l-18 -22 -1 38 0 37 -115 0
-115 0 0 -310 0 -310 120 0 120 0 0 155 c0 119 4 164 16 195 25 63 82 84 177
66 l38 -7 -3 108 -3 108 -65 3 c-52 2 -72 -2 -99 -19z"/>
<path d="M5492 2995 c-103 -32 -158 -104 -150 -194 9 -95 78 -147 235 -176
107 -21 133 -32 133 -60 0 -28 -48 -50 -87 -40 -33 8 -63 33 -63 52 0 10 -26
13 -116 13 l-117 0 6 -41 c6 -47 48 -104 97 -133 110 -65 333 -59 434 12 54
38 76 83 76 158 0 112 -54 158 -235 198 -114 25 -148 44 -125 70 19 23 85 21
110 -4 11 -11 20 -24 20 -30 0 -6 43 -10 110 -10 120 0 117 -2 100 62 -14 49
-76 103 -141 122 -65 20 -227 20 -287 1z"/>
<path d="M2530 2690 l0 -310 120 0 120 0 0 310 0 310 -120 0 -120 0 0 -310z"/>
<path d="M3524 2838 c29 -90 75 -229 102 -311 l49 -148 139 3 139 3 99 295
c54 162 98 300 98 307 0 10 -30 13 -120 13 l-119 0 -10 -37 c-6 -21 -25 -94
-42 -163 -18 -69 -35 -128 -39 -133 -4 -4 -26 69 -50 163 l-43 170 -127 0
-128 0 52 -162z"/>
<path d="M6000 2690 l0 -310 120 0 120 0 0 310 0 310 -120 0 -120 0 0 -310z"/>
<path d="M6750 2988 c0 -7 43 -127 95 -268 51 -140 97 -266 100 -280 9 -41 -8
-54 -79 -58 l-66 -4 0 -94 0 -94 108 0 c132 0 195 17 239 62 42 45 38 36 167
394 63 176 117 327 121 337 7 16 -1 17 -121 15 l-127 -3 -43 -153 c-23 -84
-44 -157 -46 -164 -2 -6 -24 63 -50 153 l-45 164 -127 3 c-95 2 -126 0 -126
-10z"/>
<path d="M11640 2440 l0 -170 30 0 30 0 0 170 0 170 -30 0 -30 0 0 -170z"/>
<path d="M13447 2592 c-10 -10 -17 -31 -17 -45 0 -17 -5 -27 -15 -27 -10 0
-15 -10 -15 -30 0 -20 5 -30 15 -30 12 0 15 -17 15 -95 l0 -95 30 0 30 0 0 95
0 95 30 0 c27 0 30 3 30 30 0 27 -3 30 -30 30 -16 0 -30 4 -30 9 0 14 22 26
43 23 13 -3 17 4 17 27 0 30 -2 31 -43 31 -30 0 -49 -6 -60 -18z"/>
<path d="M15720 2440 l0 -170 35 0 35 0 0 170 0 170 -35 0 -35 0 0 -170z"/>
<path d="M17360 2440 l0 -170 35 0 35 0 0 170 0 170 -35 0 -35 0 0 -170z"/>
<path d="M11955 2586 c-68 -29 -103 -103 -92 -188 14 -106 124 -165 231 -124
62 24 75 41 49 67 l-20 20 -41 -21 c-52 -27 -92 -20 -127 22 -38 45 -35 100 9
144 40 40 66 42 120 13 l39 -21 18 23 c14 19 15 27 6 38 -32 38 -133 53 -192
27z"/>
<path d="M14120 2565 l0 -35 50 0 50 0 0 -130 0 -130 35 0 35 0 0 130 0 130
50 0 50 0 0 35 0 35 -135 0 -135 0 0 -35z"/>
<path d="M16062 2583 c-16 -31 -132 -301 -132 -307 0 -3 15 -6 34 -6 31 0 36
4 47 35 l13 35 74 0 73 0 15 -35 c12 -31 19 -35 50 -35 43 0 45 -13 -40 180
-60 138 -65 145 -94 148 -22 2 -33 -2 -40 -15z"/>
<path d="M9070 2425 l0 -165 35 0 35 0 0 165 0 165 -35 0 -35 0 0 -165z"/>
<path d="M17480 2555 c0 -24 -5 -35 -15 -35 -10 0 -15 -10 -15 -30 0 -20 5
-30 15 -30 12 0 15 -14 15 -64 0 -36 4 -76 10 -91 12 -30 53 -48 92 -40 23 6
28 12 28 36 0 23 -4 30 -17 28 -41 -4 -43 0 -43 66 l0 65 30 0 c27 0 30 3 30
30 0 27 -3 30 -30 30 -28 0 -30 3 -30 35 0 33 -2 35 -35 35 -33 0 -35 -2 -35
-35z"/>
<path d="M9460 2550 c0 -20 -5 -30 -15 -30 -10 0 -15 -10 -15 -30 0 -20 5 -30
15 -30 12 0 15 -15 15 -71 0 -96 18 -129 72 -129 43 0 58 10 58 39 0 23 -4 27
-27 26 -28 0 -28 1 -31 68 l-3 67 31 0 c27 0 30 3 30 30 0 27 -3 30 -30 30
-27 0 -30 3 -30 30 0 28 -3 30 -35 30 -32 0 -35 -2 -35 -30z"/>
<path d="M10570 2550 c0 -20 -5 -30 -15 -30 -10 0 -15 -10 -15 -30 0 -20 5
-30 15 -30 12 0 15 -16 15 -84 0 -76 2 -86 22 -100 46 -32 108 -18 108 25 0
27 -2 29 -26 23 -35 -9 -44 7 -44 79 l0 57 35 0 c32 0 35 2 35 30 0 28 -3 30
-35 30 -32 0 -35 2 -35 30 0 27 -3 30 -30 30 -27 0 -30 -3 -30 -30z"/>
<path d="M12720 2550 c0 -23 -4 -30 -20 -30 -16 0 -20 -7 -20 -30 0 -23 4 -30
20 -30 18 0 20 -7 20 -84 0 -76 2 -86 22 -100 44 -31 98 -17 98 24 0 25 -4 29
-27 27 -28 -2 -28 -1 -31 66 l-3 67 36 0 c32 0 35 2 35 30 0 28 -3 30 -35 30
-32 0 -35 2 -35 30 0 27 -3 30 -30 30 -27 0 -30 -3 -30 -30z"/>
<path d="M9190 2390 l0 -130 30 0 30 0 0 78 c0 84 16 122 50 122 34 0 50 -38
50 -122 l0 -78 30 0 30 0 0 105 c0 99 -2 107 -25 130 -28 29 -79 33 -113 9
-20 -14 -22 -14 -22 0 0 11 -10 16 -30 16 l-30 0 0 -130z"/>
<path d="M9658 2502 c-67 -41 -76 -148 -19 -206 28 -28 38 -31 91 -31 48 0 64
4 82 22 21 21 21 24 6 40 -15 15 -20 15 -49 0 -34 -16 -53 -14 -81 11 -31 27
-20 32 67 32 l85 0 0 41 c0 33 -6 47 -34 75 -28 28 -41 34 -77 34 -24 0 -56
-8 -71 -18z"/>
<path d="M9870 2390 l0 -130 35 0 35 0 0 69 c0 75 23 121 61 121 15 0 19 7 19
35 0 40 -19 46 -58 19 -20 -14 -22 -14 -22 0 0 12 -10 16 -35 16 l-35 0 0
-130z"/>
<path d="M10040 2390 l0 -130 35 0 35 0 0 84 c0 89 12 116 49 116 33 0 41 -22
41 -112 l0 -88 35 0 35 0 0 95 c0 100 -13 147 -45 159 -25 9 -74 7 -96 -4 -13
-7 -19 -7 -19 0 0 5 -16 10 -35 10 l-35 0 0 -130z"/>
<path d="M10340 2512 c-14 -5 -25 -13 -24 -20 4 -44 2 -43 54 -36 34 4 55 3
65 -6 27 -22 16 -30 -40 -30 -46 0 -60 -4 -80 -25 -33 -32 -33 -78 1 -111 22
-23 31 -25 72 -20 26 3 66 6 90 6 l42 -1 0 95 c0 85 -2 98 -23 122 -19 22 -33
28 -78 30 -30 2 -65 0 -79 -4z"/>
<path d="M10879 2497 c-78 -52 -71 -180 12 -223 42 -21 101 -18 140 9 43 29
59 60 59 116 0 37 -5 49 -39 82 -35 35 -44 39 -88 39 -36 0 -60 -7 -84 -23z
m126 -57 c40 -44 10 -120 -46 -120 -32 0 -69 40 -69 74 0 56 78 87 115 46z"/>
<path d="M11120 2395 l0 -125 29 0 28 0 5 79 c5 86 17 111 54 111 33 0 44 -28
44 -114 l0 -76 36 0 36 0 -4 100 c-3 88 -6 102 -28 125 -28 29 -83 34 -118 9
-20 -14 -22 -14 -22 0 0 11 -10 16 -30 16 l-30 0 0 -125z"/>
<path d="M11413 2510 c-24 -10 -27 -18 -17 -44 5 -13 16 -15 55 -10 33 4 54 2
64 -6 27 -22 16 -30 -39 -30 -72 0 -106 -26 -106 -80 0 -55 37 -84 100 -76 25
3 64 5 88 5 l42 0 0 81 c0 95 -17 146 -55 160 -32 12 -102 12 -132 0z"/>
<path d="M12222 2504 c-49 -34 -68 -125 -37 -183 29 -57 122 -78 183 -41 36
22 39 32 17 50 -12 10 -21 10 -41 1 -35 -16 -70 -14 -88 5 -29 28 -17 34 69
34 l85 0 0 30 c0 38 -23 84 -52 104 -12 9 -43 16 -68 16 -25 0 -56 -7 -68 -16z"/>
<path d="M12440 2395 l0 -125 30 0 30 0 0 68 c0 78 16 116 50 120 37 6 50 -22
50 -110 l0 -78 36 0 36 0 -4 100 c-3 88 -6 102 -28 125 -28 30 -93 35 -122 8
-17 -15 -18 -15 -18 0 0 12 -9 17 -30 17 l-30 0 0 -125z"/>
<path d="M12895 2487 c-110 -110 10 -278 150 -211 42 20 51 40 23 55 -15 8
-26 8 -43 -1 -31 -17 -75 -9 -93 18 l-14 22 91 0 c103 0 106 3 75 80 -19 48
-55 70 -115 70 -33 0 -47 -6 -74 -33z"/>
<path d="M13120 2395 l0 -125 35 0 35 0 0 64 c0 73 24 116 66 116 21 0 24 5
24 35 0 30 -3 35 -23 35 -12 0 -33 -7 -45 -16 -20 -14 -22 -14 -22 0 0 12 -10
16 -35 16 l-35 0 0 -125z"/>
<path d="M13595 2488 c-74 -68 -52 -184 41 -217 112 -39 216 65 171 170 -23
54 -50 72 -116 77 -56 4 -61 2 -96 -30z"/>
<path d="M13840 2426 c0 -133 6 -156 40 -156 27 0 28 1 32 69 4 77 24 111 65
111 20 0 23 5 23 35 0 30 -3 35 -23 35 -12 0 -33 -7 -45 -16 -20 -14 -22 -14
-22 0 0 12 -10 16 -35 16 l-35 0 0 -94z"/>
<path d="M14380 2395 l0 -125 29 0 c27 0 28 2 34 65 8 80 20 104 58 112 25 5
29 10 29 39 0 30 -3 34 -25 34 -14 0 -34 -9 -45 -20 l-20 -20 0 20 c0 16 -7
20 -30 20 l-30 0 0 -125z"/>
<path d="M14588 2503 c-42 -27 -62 -72 -56 -127 6 -53 28 -82 75 -102 135 -58
251 100 153 209 -23 26 -35 31 -86 34 -44 3 -66 -1 -86 -14z"/>
<path d="M14820 2355 l0 -165 35 0 35 0 0 49 0 50 28 -15 c35 -18 66 -18 102
1 40 21 60 63 60 126 0 45 -4 55 -34 85 -28 28 -42 34 -76 34 -23 0 -50 -5
-61 -10 -13 -7 -19 -7 -19 0 0 5 -16 10 -35 10 l-35 0 0 -165z"/>
<path d="M15254 2487 c-43 -39 -54 -93 -31 -149 19 -45 54 -69 110 -75 69 -7
129 39 95 73 -16 16 -19 16 -42 1 -35 -23 -59 -21 -84 6 -59 63 15 153 84 103
17 -13 21 -12 37 1 40 37 0 73 -80 73 -46 0 -58 -4 -89 -33z"/>
<path d="M15491 2509 c-15 -6 -21 -14 -17 -25 3 -9 6 -20 6 -25 0 -6 20 -7 50
-3 34 4 55 3 65 -6 26 -21 17 -27 -42 -27 -49 0 -60 -4 -80 -27 -37 -44 -30
-97 18 -121 35 -19 66 -19 102 -1 15 8 27 11 27 5 0 -5 14 -9 30 -9 l30 0 0
96 c0 92 -1 97 -29 125 -25 25 -37 29 -83 28 -29 0 -64 -5 -77 -10z"/>
<path d="M16314 2502 c-64 -51 -57 -169 11 -200 32 -15 90 -16 116 -2 28 15
25 -14 -3 -34 -27 -19 -67 -20 -104 -4 -23 11 -28 10 -40 -7 -8 -11 -13 -24
-11 -29 6 -17 89 -37 129 -31 100 15 118 46 118 209 l0 116 -35 0 c-19 0 -35
-5 -35 -10 0 -7 -6 -7 -19 0 -31 16 -103 12 -127 -8z"/>
<path d="M16570 2395 l0 -125 30 0 c30 0 30 1 30 53 0 65 26 119 60 127 19 4
26 13 28 38 3 28 0 32 -20 32 -13 0 -34 -7 -46 -16 -20 -14 -22 -14 -22 0 0
11 -10 16 -30 16 l-30 0 0 -125z"/>
<path d="M16740 2395 l0 -125 35 0 35 0 0 125 0 125 -35 0 -35 0 0 -125z"/>
<path d="M16894 2501 c-40 -24 -58 -69 -51 -127 9 -81 85 -130 166 -106 56 17
70 38 44 64 -20 19 -22 19 -47 3 -76 -50 -140 66 -65 118 20 14 26 14 57 1 34
-14 37 -13 56 6 l21 21 -25 19 c-33 26 -114 27 -156 1z"/>
<path d="M17092 2415 c3 -92 6 -107 25 -127 17 -16 33 -22 65 -21 24 1 64 2
91 2 l47 0 0 125 0 126 -35 0 -35 0 0 -84 c0 -76 -2 -86 -22 -100 -28 -20 -33
-20 -52 0 -12 12 -16 36 -16 100 l0 84 -36 0 -36 0 4 -105z"/>
<path d="M17640 2425 c0 -114 11 -141 61 -156 30 -9 43 -9 68 4 17 8 31 11 31
6 0 -5 16 -9 35 -9 l35 0 0 125 0 125 -35 0 -35 0 0 -80 c0 -67 -3 -83 -20
-100 -24 -24 -30 -24 -56 -6 -16 12 -20 29 -23 100 l-3 86 -29 0 -29 0 0 -95z"/>
<path d="M17910 2395 l0 -125 30 0 c30 0 30 0 30 58 0 70 16 103 58 121 25 12
32 21 32 43 0 24 -4 28 -27 28 -14 0 -35 -7 -45 -17 -17 -15 -18 -15 -18 0 0
12 -9 17 -30 17 l-30 0 0 -125z"/>
<path d="M18094 2486 c-30 -30 -34 -40 -34 -85 0 -80 25 -116 97 -136 31 -9
84 3 113 25 l25 19 -21 21 c-20 20 -22 20 -50 4 -36 -20 -73 -14 -92 16 -12
20 -10 20 78 20 90 0 90 0 90 25 0 38 -25 90 -51 109 -14 9 -43 16 -72 16 -42
0 -54 -5 -83 -34z"/>
<path d="M1710 2000 l0 -250 50 0 50 0 0 250 0 250 -50 0 -50 0 0 -250z"/>
<path d="M7240 2000 l0 -250 45 0 45 0 0 250 0 250 -45 0 -45 0 0 -250z"/>
<path d="M2600 2165 c0 -54 0 -55 -30 -55 -28 0 -30 -3 -30 -35 0 -32 2 -35
29 -35 l29 0 4 -131 c3 -115 5 -132 22 -145 25 -18 79 -28 111 -20 21 5 25 12
25 41 0 31 -3 34 -32 37 l-33 3 -3 108 -3 107 36 0 c33 0 35 2 35 35 0 33 -2
35 -35 35 l-35 0 0 55 0 55 -45 0 -45 0 0 -55z"/>
<path d="M4970 2165 c0 -54 0 -55 -30 -55 -28 0 -30 -3 -30 -35 0 -32 2 -35
30 -35 l30 0 0 -128 c0 -110 3 -131 18 -145 24 -21 66 -30 107 -23 32 6 35 10
35 41 0 33 -2 35 -34 35 -43 0 -46 8 -46 126 l0 94 40 0 c39 0 40 1 40 35 0
34 -1 35 -40 35 l-40 0 0 55 0 55 -40 0 -40 0 0 -55z"/>
<path d="M2160 2103 c-14 -9 -28 -22 -32 -27 -4 -6 -8 -1 -8 12 0 19 -5 22
-40 22 l-40 0 0 -180 0 -180 45 0 45 0 0 125 c0 120 1 127 25 150 31 32 78 33
99 3 13 -18 16 -51 16 -150 l0 -128 45 0 45 0 0 151 0 151 -34 34 c-30 30 -40
34 -88 34 -34 0 -63 -6 -78 -17z"/>
<path d="M3035 2108 c-98 -54 -131 -188 -72 -293 29 -50 77 -75 147 -75 67 0
117 23 147 69 34 51 30 61 -22 61 -25 0 -45 -4 -45 -10 0 -20 -45 -50 -75 -50
-40 0 -70 22 -83 60 l-11 30 129 0 c75 0 131 4 135 10 11 18 -7 100 -29 133
-36 53 -81 77 -145 77 -31 0 -65 -6 -76 -12z"/>
<path d="M3591 2094 c-30 -25 -31 -25 -31 -5 0 18 -6 21 -40 21 l-40 0 0 -180
0 -180 45 0 45 0 0 105 c0 73 5 115 15 134 16 33 64 56 94 46 19 -6 21 -2 21
39 l0 46 -39 0 c-28 0 -49 -8 -70 -26z"/>
<path d="M3993 2100 c-27 -16 -33 -17 -33 -5 0 11 -11 15 -40 15 l-40 0 0
-180 0 -180 40 0 40 0 0 98 c0 53 5 114 10 134 18 64 80 88 120 48 18 -18 20
-33 20 -150 l0 -130 46 0 45 0 -3 156 -3 156 -33 29 c-27 24 -41 29 -85 29
-34 0 -63 -7 -84 -20z"/>
<path d="M4484 2106 c-38 -17 -74 -61 -74 -92 0 -22 4 -24 45 -24 33 0 45 4
45 14 0 39 93 62 124 30 36 -36 13 -57 -74 -69 -70 -9 -128 -32 -140 -56 -19
-35 -12 -106 14 -135 20 -24 33 -28 88 -32 48 -3 73 0 98 13 30 16 34 16 42 1
6 -11 23 -16 58 -16 l50 0 0 34 c0 25 -5 35 -20 39 -19 5 -20 14 -20 126 0
132 -7 149 -66 171 -36 14 -134 12 -170 -4z"/>
<path d="M5720 2113 c-98 -37 -141 -178 -87 -283 33 -64 65 -84 147 -88 61 -4
75 -1 113 22 69 40 100 129 78 223 -22 89 -81 133 -176 132 -33 0 -67 -3 -75
-6z m123 -84 c99 -77 14 -266 -94 -209 -44 24 -64 126 -35 179 28 50 87 64
129 30z"/>
<path d="M6293 2100 c-27 -16 -33 -17 -33 -5 0 11 -11 15 -40 15 l-40 0 0
-180 0 -180 45 0 45 0 0 125 c0 120 1 127 25 150 29 30 68 32 95 5 18 -18 20
-33 20 -150 l0 -130 46 0 45 0 -3 156 -3 156 -33 29 c-27 24 -41 29 -85 29
-34 0 -63 -7 -84 -20z"/>
<path d="M6785 2106 c-40 -18 -63 -45 -71 -84 l-6 -32 46 0 c33 0 46 4 46 14
0 39 93 62 124 30 36 -35 13 -58 -69 -69 -118 -16 -155 -42 -155 -113 0 -54
12 -77 50 -97 38 -19 123 -19 161 0 27 14 31 14 45 0 9 -9 33 -15 60 -15 44 0
44 0 44 35 0 23 -5 35 -14 35 -22 0 -26 23 -26 136 0 58 -5 114 -11 126 -24
44 -156 64 -224 34z"/>
<path d="M5320 1930 l0 -180 45 0 45 0 0 180 0 180 -45 0 -45 0 0 -180z"/>
<path d="M14978 1933 c-43 -159 -44 -168 -26 -171 11 -2 22 -1 25 1 4 4 93
323 93 335 0 1 -10 2 -23 2 -22 0 -27 -12 -69 -167z"/>
<path d="M16902 1937 c-23 -89 -42 -166 -42 -170 0 -5 10 -7 21 -5 18 2 26 18
45 83 32 111 84 154 128 106 17 -18 16 -23 -3 -93 -26 -93 -26 -100 1 -96 17
2 25 16 39 68 10 36 18 84 19 107 0 56 -30 78 -96 70 -45 -5 -46 -4 -39 22 3
14 9 36 12 49 4 18 1 22 -18 22 -22 0 -27 -11 -67 -163z"/>
<path d="M9131 2064 c-25 -20 -31 -34 -31 -63 0 -44 16 -61 81 -90 63 -28 84
-53 69 -81 -28 -52 -114 -57 -173 -10 -21 17 -27 17 -36 6 -27 -32 87 -84 155
-72 73 14 117 91 80 141 -7 10 -42 32 -77 49 -75 36 -86 61 -43 95 34 27 77
27 120 0 19 -11 38 -18 44 -14 35 22 -36 65 -107 65 -41 0 -58 -5 -82 -26z"/>
<path d="M10724 2056 c-29 -29 -34 -41 -34 -80 0 -75 39 -104 130 -96 14 1 31
7 38 12 20 17 22 5 5 -30 -33 -67 -118 -98 -162 -58 -12 11 -27 16 -37 12 -31
-12 25 -57 77 -63 86 -9 161 63 178 169 18 110 -20 168 -111 168 -43 0 -54 -4
-84 -34z m141 -21 c33 -32 31 -60 -4 -96 -40 -39 -91 -40 -121 -2 -58 74 59
165 125 98z"/>
<path d="M11095 2080 c-59 -24 -105 -110 -105 -195 0 -76 20 -111 70 -126 85
-26 160 25 160 108 0 78 -75 122 -153 89 -42 -17 -43 -16 -22 23 36 70 112
101 163 65 13 -9 30 -13 40 -9 15 6 13 10 -11 31 -22 18 -39 24 -75 23 -26 0
-56 -4 -67 -9z m75 -170 c24 -24 25 -41 5 -79 -28 -55 -104 -60 -139 -9 -22
31 -20 41 10 77 21 25 33 31 65 31 26 0 46 -7 59 -20z"/>
<path d="M11317 2075 c-5 -12 10 -15 84 -17 l89 -3 -104 -145 c-91 -125 -102
-145 -85 -148 12 -2 22 -2 23 0 90 122 210 297 214 310 4 16 -5 18 -106 18
-87 0 -111 -3 -115 -15z"/>
<path d="M11804 2080 c-31 -12 -54 -49 -54 -85 0 -43 9 -52 81 -88 72 -36 86
-64 47 -91 -41 -29 -121 -14 -150 28 -5 7 -13 6 -23 -5 -58 -58 130 -116 202
-63 16 12 32 36 37 57 13 49 -10 80 -82 115 -65 31 -78 59 -40 86 30 22 66 20
106 -4 27 -16 37 -18 48 -9 21 17 17 27 -18 49 -35 21 -114 26 -154 10z"/>
<path d="M13797 2073 c-2 -5 -7 -20 -11 -35 -4 -19 -13 -28 -26 -28 -14 0 -20
-7 -20 -24 0 -13 5 -26 12 -28 9 -3 8 -19 -5 -66 -30 -108 -19 -136 50 -130
27 2 39 8 41 21 3 13 -3 17 -27 17 -37 0 -39 12 -14 100 16 60 16 60 55 60 21
0 38 4 38 9 0 5 3 16 6 25 5 13 -1 16 -30 16 -37 0 -37 0 -30 35 5 31 4 35
-14 35 -12 0 -23 -3 -25 -7z"/>
<path d="M15156 2045 c-5 -25 -12 -35 -25 -35 -10 0 -21 -9 -24 -20 -3 -13 0
-20 9 -20 18 0 17 -13 -1 -74 -20 -66 -20 -122 1 -130 31 -12 82 -6 88 10 9
23 8 24 -23 24 -17 0 -32 4 -35 8 -3 5 4 43 16 85 l21 77 39 0 c31 0 38 3 38
20 0 16 -7 20 -35 20 -33 0 -34 1 -25 26 15 37 13 44 -14 44 -19 0 -25 -7 -30
-35z"/>
<path d="M16034 2045 c-4 -24 -12 -35 -24 -35 -10 0 -21 -7 -24 -16 -9 -22 -8
-24 9 -24 19 0 19 1 -4 -89 -26 -99 -17 -121 50 -121 25 0 39 5 43 16 10 27 7
31 -23 26 -36 -5 -43 6 -31 49 5 19 14 53 20 77 10 40 12 42 50 42 33 0 40 3
40 20 0 16 -7 20 -34 20 -34 0 -35 0 -25 32 5 18 9 34 9 35 0 2 -11 3 -25 3
-20 0 -25 -6 -31 -35z"/>
<path d="M9598 1996 c-16 -8 -28 -10 -28 -5 0 6 -7 9 -16 7 -12 -2 -25 -33
-45 -108 -33 -122 -34 -130 -15 -130 13 0 29 41 51 131 15 60 92 101 130 69
20 -17 19 -41 -5 -125 -11 -38 -20 -71 -20 -72 0 -2 8 -3 18 -3 13 0 22 16 35
68 22 87 22 134 -1 155 -27 24 -73 30 -104 13z"/>
<path d="M9886 2000 c-70 -21 -118 -108 -96 -174 16 -51 45 -71 99 -71 57 0
109 29 91 50 -9 11 -17 10 -45 -6 -94 -56 -159 68 -75 144 38 34 84 36 117 5
16 -15 27 -18 33 -12 16 16 1 41 -35 58 -37 18 -47 18 -89 6z"/>
<path d="M10145 1996 c-87 -40 -120 -160 -58 -218 31 -29 105 -32 147 -5 41
27 19 45 -28 23 -56 -26 -116 2 -116 56 0 15 13 18 98 20 l97 3 -1 43 c-1 52
-25 81 -75 87 -19 3 -47 -1 -64 -9z"/>
<path d="M12094 1996 c-42 -18 -76 -69 -81 -119 -5 -53 13 -87 58 -111 41 -22
94 -17 130 13 19 15 21 21 11 34 -11 13 -17 12 -48 -4 -20 -10 -43 -15 -52
-12 -62 22 -71 86 -18 139 39 39 63 42 100 13 15 -11 33 -18 41 -15 43 16 -15
76 -74 76 -20 -1 -50 -7 -67 -14z"/>
<path d="M12503 1994 c-46 -23 -76 -77 -77 -135 -1 -56 20 -84 75 -101 63 -18
163 30 118 57 -5 4 -25 0 -44 -9 -35 -17 -58 -13 -87 12 -38 32 -22 41 75 44
l92 3 3 46 c4 62 -19 90 -78 95 -30 3 -56 -1 -77 -12z"/>
<path d="M12756 1993 c-16 -52 -56 -210 -56 -220 0 -7 9 -13 20 -13 15 0 23
12 35 58 33 121 71 166 120 144 30 -14 32 -41 10 -122 -19 -72 -19 -80 5 -80
22 0 47 69 57 156 5 44 2 55 -16 73 -23 23 -70 28 -104 10 -16 -9 -22 -9 -25
0 -6 17 -40 13 -46 -6z"/>
<path d="M13095 2000 c-11 -4 -33 -22 -49 -39 -24 -25 -31 -42 -34 -89 -4 -52
-1 -60 23 -84 33 -33 74 -43 119 -28 46 15 63 35 46 55 -11 13 -15 13 -33 0
-25 -17 -60 -19 -87 -5 -44 24 -26 116 29 144 39 21 53 20 84 -4 14 -11 32
-17 41 -14 18 7 18 7 10 29 -14 36 -99 56 -149 35z"/>
<path d="M13365 2000 c-11 -4 -33 -22 -49 -39 -23 -24 -30 -42 -34 -84 -5 -66
8 -94 55 -114 52 -21 143 0 143 34 0 22 -21 25 -55 9 -39 -19 -77 -9 -94 23
-21 38 -14 41 84 41 l95 0 0 45 c0 61 -32 95 -87 94 -21 0 -47 -4 -58 -9z"/>
<path d="M13980 1988 c-89 -61 -91 -188 -5 -224 45 -19 61 -18 110 6 49 24 85
81 85 135 0 29 -8 45 -34 71 -28 28 -41 34 -79 34 -29 0 -55 -7 -77 -22z m120
-38 c50 -50 1 -150 -74 -150 -71 0 -89 79 -32 136 39 39 76 44 106 14z"/>
<path d="M14450 1991 c-45 -24 -73 -72 -73 -126 0 -57 24 -92 71 -104 67 -18
151 19 122 54 -10 12 -15 12 -35 -1 -35 -23 -86 -14 -104 17 -18 33 -8 73 29
110 34 34 72 37 101 8 13 -13 27 -18 40 -14 22 7 23 14 6 36 -32 42 -100 51
-157 20z"/>
<path d="M14671 1922 c-14 -56 -20 -98 -15 -116 9 -36 59 -59 100 -47 16 5 43
6 59 4 l31 -5 27 104 c15 57 30 113 33 126 5 18 2 22 -18 22 -23 0 -27 -7 -47
-84 -24 -91 -50 -126 -93 -126 -14 0 -31 7 -39 16 -13 16 -12 22 27 172 5 18
2 22 -18 22 -22 0 -26 -8 -47 -88z"/>
<path d="M15441 1993 c0 -10 8 -65 18 -123 15 -93 19 -105 38 -108 17 -3 37
20 102 113 45 64 81 120 81 125 0 6 -10 10 -22 10 -18 0 -37 -22 -83 -91 -67
-103 -67 -103 -80 26 -7 60 -9 65 -31 65 -16 0 -24 -6 -23 -17z"/>
<path d="M15748 2003 c-10 -2 -18 -14 -18 -25 0 -18 4 -19 48 -13 49 6 78 -5
84 -35 2 -12 -10 -15 -62 -16 -70 0 -102 -14 -119 -51 -16 -35 -13 -61 9 -83
22 -22 88 -27 121 -10 13 7 19 7 19 0 0 -5 9 -10 19 -10 15 0 24 13 37 58 9
31 19 78 21 103 5 41 2 48 -22 67 -27 21 -89 28 -137 15z"/>
<path d="M16250 2003 c-50 -18 -90 -83 -90 -146 0 -34 6 -50 26 -71 34 -33
102 -39 152 -14 27 14 25 45 -3 40 -93 -17 -116 -10 -130 36 -6 22 -5 22 89
22 86 0 95 2 101 20 10 33 -4 78 -32 100 -25 19 -79 25 -113 13z"/>
<path d="M16685 2000 c-11 -4 -33 -22 -49 -39 -23 -24 -30 -42 -34 -85 -4 -51
-2 -57 26 -86 26 -25 38 -30 79 -30 50 0 93 21 93 45 0 23 -18 27 -42 11 -83
-59 -152 51 -79 125 34 34 68 37 104 9 14 -11 32 -17 41 -14 46 18 -15 74 -78
73 -22 0 -50 -4 -61 -9z"/>
<path d="M17227 2003 c-11 -3 -16 -10 -13 -20 3 -8 6 -17 6 -19 0 -3 22 -2 48
2 38 5 52 2 65 -11 33 -33 21 -42 -52 -41 -61 1 -73 -2 -95 -23 -32 -30 -36
-89 -8 -114 22 -20 102 -23 120 -5 9 9 12 9 12 -1 0 -7 9 -11 22 -9 17 2 25
16 40 68 19 68 23 127 10 146 -19 29 -95 42 -155 27z"/>
<path d="M17495 1998 c-14 -43 -55 -208 -55 -222 0 -22 37 -21 44 2 3 9 12 44
22 77 18 66 56 115 89 115 46 0 56 -39 30 -124 -20 -66 -19 -86 4 -86 15 0 24
13 37 58 28 96 30 146 5 171 -23 23 -79 28 -112 11 -13 -7 -19 -7 -19 0 0 14
-40 13 -45 -2z"/>
<path d="M17813 1990 c-39 -24 -63 -67 -63 -115 0 -72 86 -119 152 -84 30 16
32 5 3 -30 -31 -36 -76 -41 -126 -15 -34 17 -59 13 -59 -10 0 -39 152 -63 198
-30 31 22 46 55 77 169 14 55 29 108 31 118 4 13 -1 17 -20 17 -16 0 -26 -6
-26 -15 0 -19 -9 -19 -34 0 -28 21 -95 19 -133 -5z m126 -47 c26 -32 20 -58
-20 -95 -77 -73 -165 18 -90 93 39 38 82 39 110 2z"/>
<path d="M18133 1990 c-73 -44 -91 -172 -30 -215 32 -22 119 -20 148 4 19 16
21 22 12 32 -10 10 -18 10 -38 1 -41 -19 -82 -15 -99 10 -31 43 -23 48 79 48
l95 0 0 45 c0 35 -6 52 -25 70 -31 31 -95 34 -142 5z"/>
</g>
</svg>
